<?xml version="1.0" encoding="utf-8"?>
<!-- Generator: Adobe Illustrator 16.0.0, SVG Export Plug-In . SVG Version: 6.00 Build 0)  -->
<!DOCTYPE svg PUBLIC "-//W3C//DTD SVG 1.1//EN" "http://www.w3.org/Graphics/SVG/1.1/DTD/svg11.dtd">
<svg version="1.1" id="Layer_1" xmlns="http://www.w3.org/2000/svg" xmlns:xlink="http://www.w3.org/1999/xlink" x="0px" y="0px"
	 width="39.115px" height="39.113px" viewBox="0 0 39.115 39.113" enable-background="new 0 0 39.115 39.113" xml:space="preserve">
<path fill="#2C130C" d="M5.022,0h29.073c2.762,0,5.02,2.259,5.02,5.021v29.073c0,2.762-2.258,5.02-5.02,5.02H5.022
	C2.259,39.113,0,36.855,0,34.094V5.021C0,2.259,2.259,0,5.022,0 M28.494,4.344c-0.969,0-1.761,0.794-1.761,1.764v4.213
	c0,0.971,0.792,1.763,1.761,1.763h4.422c0.967,0,1.76-0.792,1.76-1.763V6.107c0-0.97-0.793-1.764-1.76-1.764H28.494z M34.693,16.541
	h-3.441c0.325,1.064,0.504,2.188,0.504,3.357c0,6.504-5.446,11.779-12.162,11.779c-6.713,0-12.159-5.275-12.159-11.779
	c0-1.169,0.179-2.293,0.504-3.357H4.348v16.523c0,0.855,0.698,1.551,1.553,1.551H33.14c0.855,0,1.553-0.695,1.553-1.551V16.541z
	 M19.594,11.86c-4.337,0-7.855,3.407-7.855,7.613c0,4.202,3.518,7.611,7.855,7.611c4.339,0,7.857-3.409,7.857-7.611
	C27.451,15.268,23.933,11.86,19.594,11.86"/>
</svg>
