<?xml version="1.0" encoding="utf-8"?>
<!-- Generator: Adobe Illustrator 16.0.0, SVG Export Plug-In . SVG Version: 6.00 Build 0)  -->
<!DOCTYPE svg PUBLIC "-//W3C//DTD SVG 1.1//EN" "http://www.w3.org/Graphics/SVG/1.1/DTD/svg11.dtd">
<svg version="1.1" id="Layer_1" xmlns="http://www.w3.org/2000/svg" xmlns:xlink="http://www.w3.org/1999/xlink" x="0px" y="0px"
	 width="40.419px" height="32.848px" viewBox="0 0 40.419 32.848" enable-background="new 0 0 40.419 32.848" xml:space="preserve">
<path fill="#2C130C" d="M40.419,3.889c-1.486,0.66-3.086,1.105-4.764,1.306c1.713-1.027,3.029-2.65,3.646-4.588
	c-1.6,0.951-3.374,1.642-5.263,2.014C32.524,1.007,30.369,0,27.983,0c-4.578,0-8.292,3.714-8.292,8.293
	c0,0.651,0.073,1.283,0.215,1.889C13.014,9.837,6.904,6.537,2.813,1.518C2.101,2.744,1.692,4.167,1.692,5.688
	c0,2.876,1.463,5.415,3.687,6.9c-1.358-0.042-2.637-0.417-3.755-1.038v0.105c0,4.017,2.859,7.37,6.651,8.131
	C7.58,19.977,6.846,20.08,6.091,20.08c-0.534,0-1.055-0.053-1.561-0.15c1.055,3.295,4.117,5.691,7.745,5.76
	c-2.836,2.224-6.411,3.55-10.298,3.55c-0.669,0-1.328-0.04-1.977-0.117c3.669,2.352,8.028,3.726,12.714,3.726
	c15.251,0,23.592-12.635,23.592-23.594c0-0.358-0.009-0.717-0.023-1.074C37.899,7.012,39.305,5.553,40.419,3.889"/>
</svg>
