<?xml version="1.0" encoding="utf-8"?>
<!-- Generator: Adobe Illustrator 16.0.0, SVG Export Plug-In . SVG Version: 6.00 Build 0)  -->
<!DOCTYPE svg PUBLIC "-//W3C//DTD SVG 1.1//EN" "http://www.w3.org/Graphics/SVG/1.1/DTD/svg11.dtd">
<svg version="1.1" id="Layer_1" xmlns="http://www.w3.org/2000/svg" xmlns:xlink="http://www.w3.org/1999/xlink" x="0px" y="0px"
	 width="51.666px" height="74.188px" viewBox="0 0 51.666 74.188" enable-background="new 0 0 51.666 74.188" xml:space="preserve">
<path fill="#2C130C" d="M43.311,31.642c3.057,0.578,5.213,1.869,6.471,3.873c1.256,2.004,1.885,5.163,1.885,9.477
	c0,8.561-2.572,15.566-7.719,21.019s-11.729,8.178-19.745,8.178c-3.159,0-6.225-0.569-9.197-1.707
	c-2.973-1.138-5.528-2.726-7.668-4.764c-2.446-2.242-4.28-4.611-5.503-7.108C0.611,58.111,0,55.556,0,52.94
	c0-2.922,0.628-5.18,1.885-6.776c1.256-1.598,3.243-2.684,5.961-3.262c-0.509-1.188-0.883-2.19-1.121-3.006
	s-0.356-1.444-0.356-1.886c0-1.528,0.806-3.09,2.42-4.688c1.613-1.597,3.134-2.395,4.56-2.395c0.612,0,1.257,0.11,1.936,0.331
	c0.68,0.221,1.461,0.586,2.344,1.096c-2.616-7.405-4.518-13.121-5.706-17.146c-1.19-4.025-1.784-6.803-1.784-8.331
	c0-2.106,0.543-3.779,1.631-5.02C12.856,0.621,14.334,0,16.203,0c3.192,0,7.235,7.134,12.126,21.4
	c0.849,2.445,1.495,4.331,1.937,5.655c0.373-1.052,0.899-2.547,1.58-4.483C36.737,8.441,40.948,1.376,44.482,1.376
	c1.731,0,3.115,0.586,4.152,1.758c1.035,1.172,1.553,2.743,1.553,4.713c0,1.495-0.568,4.229-1.707,8.204
	C47.344,20.024,45.619,25.222,43.311,31.642 M6.827,52.431c0.476,0.578,1.138,1.427,1.987,2.548
	c2.242,3.091,4.314,4.636,6.217,4.636c0.645,0,1.223-0.202,1.732-0.61c0.51-0.408,0.764-0.832,0.764-1.274
	c0-0.509-0.34-1.358-1.019-2.548c-0.68-1.188-1.613-2.53-2.802-4.025c-1.359-1.731-2.489-2.997-3.388-3.796
	c-0.901-0.798-1.623-1.196-2.166-1.196c-1.189,0-2.285,0.637-3.286,1.91c-1.003,1.273-1.504,2.777-1.504,4.51
	c0,1.393,0.348,2.946,1.045,4.662c0.696,1.716,1.707,3.438,3.032,5.172c2.004,2.684,4.492,4.747,7.464,6.19
	c2.972,1.444,6.259,2.165,9.86,2.165c6.624,0,12.168-2.471,16.635-7.414c4.467-4.941,6.701-11.133,6.701-18.572
	c0-2.274-0.17-4.084-0.51-5.426s-0.9-2.318-1.682-2.93c-1.393-1.155-4.102-2.191-8.127-3.108c-4.025-0.918-8.229-1.376-12.611-1.376
	c-1.223,0-2.089,0.204-2.598,0.611c-0.51,0.408-0.765,1.105-0.765,2.089c0,2.312,1.291,3.983,3.873,5.02
	c2.582,1.036,6.759,1.554,12.534,1.554h2.089c0.477,0,0.858,0.179,1.147,0.535c0.288,0.356,0.483,0.892,0.586,1.604
	c-0.578,0.544-1.767,1.164-3.567,1.86c-1.801,0.697-3.177,1.385-4.127,2.063c-2.037,1.495-3.677,3.27-4.916,5.324
	c-1.24,2.057-1.861,4-1.861,5.834c0,1.121,0.264,2.473,0.791,4.051c0.525,1.58,0.789,2.558,0.789,2.931v0.356l-0.102,0.458
	c-1.494-0.102-2.675-0.976-3.541-2.624c-0.867-1.646-1.3-3.847-1.3-6.598v-0.459c-0.272,0.238-0.535,0.408-0.79,0.51
	c-0.254,0.103-0.535,0.153-0.84,0.153c-0.306,0-0.595-0.026-0.866-0.077c-0.273-0.051-0.578-0.127-0.918-0.229
	c0.102,0.374,0.179,0.738,0.23,1.095c0.051,0.356,0.076,0.637,0.076,0.841c0,1.257-0.493,2.336-1.478,3.236
	c-0.985,0.899-2.157,1.35-3.515,1.35c-2.14,0-4.315-1.045-6.522-3.134c-2.209-2.089-3.312-4.135-3.312-6.141
	c0-0.372,0.042-0.703,0.127-0.992S6.623,52.635,6.827,52.431 M22.113,53.653c0.577,0,1.104-0.263,1.58-0.79
	c0.475-0.525,0.713-1.095,0.713-1.707c0-0.645-0.467-2.147-1.401-4.509c-0.935-2.36-2.098-4.679-3.49-6.955
	c-1.019-1.698-2.022-2.98-3.007-3.847c-0.985-0.866-1.919-1.299-2.802-1.299c-0.713,0-1.503,0.449-2.369,1.35
	c-0.867,0.9-1.3,1.741-1.3,2.522c0,0.814,0.425,2.038,1.274,3.669c0.849,1.63,1.987,3.361,3.414,5.196
	c1.494,2.005,2.904,3.567,4.229,4.688C20.279,53.093,21.331,53.653,22.113,53.653 M27.107,29.044l-5.503-15.898
	c-1.427-4.042-2.531-6.683-3.312-7.923c-0.782-1.24-1.631-1.86-2.548-1.86c-0.713,0-1.291,0.272-1.732,0.816
	c-0.442,0.543-0.663,1.272-0.663,2.19c0,1.562,0.594,4.28,1.784,8.152c1.188,3.872,2.972,8.951,5.35,15.235
	c0.204-0.374,0.492-0.638,0.866-0.79c0.373-0.153,0.883-0.229,1.528-0.229c0.204,0,0.612,0.018,1.223,0.052
	C24.712,28.822,25.713,28.907,27.107,29.044 M32.864,44.481c-1.461-0.066-2.845-0.22-4.152-0.458s-2.557-0.578-3.745-1.019
	c0.543,1.087,1.027,2.174,1.452,3.261s0.772,2.157,1.044,3.21c0.815-1.019,1.674-1.945,2.573-2.777S31.879,45.128,32.864,44.481
	 M39.641,30.775c2.275-6.182,4.051-11.286,5.326-15.311c1.272-4.026,1.909-6.497,1.909-7.414c0-0.985-0.212-1.749-0.637-2.293
	c-0.425-0.543-1.011-0.815-1.757-0.815c-0.952,0-1.92,0.79-2.905,2.369c-0.985,1.58-2.072,4.119-3.261,7.618l-5.096,14.725
	L39.641,30.775z"/>
</svg>
