<?xml version="1.0" encoding="utf-8"?>
<!-- Generator: Adobe Illustrator 16.0.0, SVG Export Plug-In . SVG Version: 6.00 Build 0)  -->
<!DOCTYPE svg PUBLIC "-//W3C//DTD SVG 1.1//EN" "http://www.w3.org/Graphics/SVG/1.1/DTD/svg11.dtd">
<svg version="1.1" id="Layer_1" xmlns="http://www.w3.org/2000/svg" xmlns:xlink="http://www.w3.org/1999/xlink" x="0px" y="0px"
	 width="24px" height="34.462px" viewBox="0 0 24 34.462" enable-background="new 0 0 24 34.462" xml:space="preserve">
<path fill="#F04B49" d="M20.117,14.698c1.42,0.269,2.422,0.869,3.006,1.799C23.707,17.428,24,18.896,24,20.9
	c0,3.976-1.195,7.23-3.586,9.763c-2.392,2.532-5.448,3.799-9.173,3.799c-1.467,0-2.891-0.265-4.271-0.793s-2.568-1.267-3.562-2.213
	c-1.136-1.041-1.987-2.142-2.556-3.302S0,25.807,0,24.592c0-1.356,0.291-2.406,0.875-3.147s1.507-1.246,2.77-1.515
	c-0.237-0.553-0.411-1.018-0.521-1.396s-0.166-0.671-0.166-0.876c0-0.71,0.375-1.436,1.125-2.177
	c0.75-0.742,1.455-1.113,2.118-1.113c0.284,0,0.583,0.052,0.899,0.154c0.316,0.103,0.679,0.272,1.089,0.509
	C6.974,11.59,6.09,8.935,5.537,7.066C4.985,5.195,4.709,3.905,4.709,3.195c0-0.978,0.253-1.755,0.758-2.331
	C5.972,0.288,6.657,0,7.525,0c1.483,0,3.361,3.314,5.633,9.941c0.396,1.136,0.695,2.012,0.9,2.627
	c0.173-0.489,0.418-1.183,0.734-2.083c2.271-6.564,4.228-9.846,5.869-9.846c0.805,0,1.447,0.273,1.929,0.817
	s0.722,1.274,0.722,2.189c0,0.694-0.264,1.965-0.793,3.811C21.991,9.302,21.19,11.716,20.117,14.698 M3.171,24.355
	c0.221,0.269,0.528,0.662,0.923,1.184c1.042,1.436,2.004,2.153,2.888,2.153c0.3,0,0.568-0.095,0.805-0.283
	c0.236-0.19,0.355-0.388,0.355-0.592c0-0.237-0.158-0.632-0.474-1.185c-0.315-0.552-0.75-1.175-1.302-1.869
	C5.734,22.959,5.211,22.371,4.793,22c-0.42-0.371-0.754-0.556-1.007-0.556c-0.553,0-1.062,0.296-1.526,0.888
	c-0.467,0.592-0.698,1.29-0.698,2.094c0,0.647,0.162,1.37,0.485,2.166c0.322,0.797,0.793,1.598,1.407,2.402
	c0.932,1.247,2.087,2.205,3.469,2.876c1.38,0.671,2.906,1.006,4.58,1.006c3.076,0,5.651-1.147,7.728-3.444
	c2.074-2.295,3.112-5.17,3.112-8.627c0-1.057-0.079-1.896-0.237-2.521c-0.158-0.623-0.418-1.077-0.781-1.361
	c-0.646-0.536-1.904-1.018-3.774-1.443c-1.87-0.427-3.822-0.64-5.858-0.64c-0.568,0-0.97,0.095-1.207,0.285
	c-0.236,0.189-0.354,0.512-0.354,0.97c0,1.073,0.599,1.85,1.799,2.331c1.199,0.482,3.14,0.722,5.821,0.722h0.972
	c0.22,0,0.397,0.082,0.532,0.248c0.134,0.166,0.225,0.414,0.271,0.746c-0.268,0.252-0.82,0.541-1.656,0.863
	c-0.837,0.324-1.476,0.643-1.918,0.959c-0.945,0.694-1.708,1.52-2.283,2.473c-0.576,0.955-0.863,1.858-0.863,2.711
	c0,0.521,0.122,1.147,0.366,1.882c0.245,0.733,0.366,1.187,0.366,1.36v0.166L13.49,30.77c-0.694-0.047-1.242-0.453-1.645-1.219
	s-0.604-1.787-0.604-3.065v-0.212c-0.126,0.109-0.248,0.188-0.366,0.236c-0.118,0.047-0.248,0.07-0.391,0.07
	c-0.142,0-0.275-0.012-0.402-0.035s-0.269-0.06-0.426-0.107c0.047,0.175,0.082,0.344,0.106,0.51
	c0.023,0.166,0.036,0.296,0.036,0.391c0,0.583-0.229,1.084-0.688,1.502c-0.458,0.42-1.002,0.629-1.633,0.629
	c-0.994,0-2.004-0.486-3.029-1.457c-1.025-0.97-1.539-1.92-1.539-2.852c0-0.174,0.021-0.327,0.06-0.462
	C3.009,24.564,3.076,24.45,3.171,24.355 M10.271,24.924c0.268,0,0.512-0.123,0.734-0.367c0.221-0.244,0.331-0.51,0.331-0.793
	c0-0.299-0.218-0.998-0.651-2.095s-0.974-2.174-1.621-3.231c-0.474-0.789-0.939-1.385-1.396-1.787
	c-0.457-0.402-0.892-0.604-1.302-0.604c-0.332,0-0.698,0.21-1.101,0.628s-0.604,0.809-0.604,1.171c0,0.379,0.197,0.947,0.592,1.705
	c0.394,0.758,0.923,1.562,1.586,2.414c0.693,0.932,1.349,1.657,1.965,2.178C9.42,24.663,9.908,24.924,10.271,24.924 M12.591,13.491
	l-2.557-7.384C9.371,4.229,8.859,3.003,8.496,2.426C8.134,1.851,7.738,1.563,7.312,1.563c-0.331,0-0.599,0.126-0.804,0.378
	C6.303,2.193,6.2,2.533,6.2,2.959c0,0.726,0.276,1.988,0.828,3.787s1.381,4.158,2.486,7.077c0.094-0.174,0.228-0.296,0.401-0.367
	c0.174-0.071,0.41-0.107,0.711-0.107c0.095,0,0.283,0.009,0.567,0.024C11.479,13.389,11.943,13.428,12.591,13.491 M15.266,20.663
	c-0.679-0.032-1.322-0.103-1.929-0.213c-0.608-0.11-1.188-0.269-1.74-0.474c0.253,0.506,0.478,1.01,0.675,1.515
	c0.197,0.506,0.359,1.003,0.485,1.491c0.379-0.473,0.776-0.903,1.194-1.29C14.369,21.307,14.808,20.963,15.266,20.663
	 M18.414,14.296c1.057-2.872,1.882-5.243,2.473-7.112c0.592-1.87,0.888-3.018,0.888-3.444c0-0.458-0.099-0.813-0.296-1.065
	c-0.197-0.253-0.47-0.379-0.816-0.379c-0.441,0-0.892,0.367-1.35,1.101c-0.457,0.733-0.962,1.913-1.514,3.538l-2.367,6.84
	L18.414,14.296z"/>
</svg>
